External Loads File
version=1
nRows=85
nColumns=13
Range=5.000000e-03-10 seconds
endheader
time 	forceRightX 	forceRightY 	forceRightZ 	pointRightX 	pointRightY 	pointRightZ 	forceLeftX 	forceLeftY 	forceLeftZ 	pointLeftX 	pointLeftY 	pointLeftZ 		
7.505000 101.096885 102.029840 -0.000000 0.032520 0.376035 -0.103089 -211.837267 529.285152 -0.000000 0.302898 0.262416 -0.352250
7.510000 105.766019 103.264603 -0.000000 0.036608 0.386009 -0.103104 -198.204222 537.018562 -0.000000 0.299281 0.252474 -0.351791
7.515000 108.701369 102.025994 -0.000000 0.041308 0.395968 -0.102995 -181.348681 542.704181 -0.000000 0.295099 0.242631 -0.351351
7.520000 109.359606 98.625393 -0.000000 0.046582 0.405589 -0.103146 -162.577664 546.512210 -0.000000 0.290354 0.233229 -0.350858
7.525000 107.673540 93.084171 -0.000000 0.052683 0.415206 -0.103274 -141.181962 549.158238 -0.000000 0.285150 0.224049 -0.350239
7.530000 103.357073 85.854770 -0.000000 0.059358 0.424324 -0.103300 -118.255289 550.639938 -0.000000 0.279406 0.215035 -0.349894
7.535000 96.276652 77.402966 -0.000000 0.066052 0.433065 -0.103335 -94.944157 550.897153 -0.000000 0.273092 0.206535 -0.349630
7.540000 86.774427 67.767708 -0.000000 0.073826 0.441422 -0.103832 -70.045977 550.147426 -0.000000 0.266350 0.198346 -0.349104
7.545000 74.858074 57.540001 -0.000000 0.081781 0.449153 -0.104003 -45.633184 547.930272 -0.000000 0.259185 0.190775 -0.348931
7.550000 61.003631 46.813720 -0.000000 0.090270 0.456639 -0.104483 -20.799644 544.120887 -0.000000 0.251624 0.183617 -0.348705
7.555000 45.565252 35.924655 -0.000000 0.099268 0.463601 -0.104697 3.886979 538.345627 -0.000000 0.243578 0.176935 -0.348812
7.560000 28.973701 25.218915 -0.000000 0.108471 0.469927 -0.105089 27.350570 530.321557 -0.000000 0.235316 0.170828 -0.348704
7.565000 11.860464 14.886614 -0.000000 0.117994 0.475856 -0.105397 50.540865 519.795845 -0.000000 0.226178 0.165347 -0.349675
7.570000 -5.214735 5.196318 -0.000000 0.127685 0.481331 -0.105765 70.745878 506.972712 -0.000000 0.217949 0.160491 -0.348142
7.575000 -21.528246 -3.746284 -0.000000 0.137615 0.486119 -0.105917 90.171152 491.780673 -0.000000 0.208784 0.156188 -0.348068
7.580000 -36.452679 -11.838732 -0.000000 0.147338 0.490343 -0.106239 107.218950 474.758213 -0.000000 0.199416 0.152687 -0.347890
7.585000 -49.408972 -18.993152 -0.000000 0.156888 0.493785 -0.106550 121.959507 456.330927 -0.000000 0.189873 0.149625 -0.347754
7.590000 -59.984934 -25.055883 -0.000000 0.166582 0.496738 -0.106737 134.687068 436.810824 -0.000000 0.180290 0.147381 -0.347531
7.595000 -67.916973 -29.895810 -0.000000 0.176003 0.498815 -0.106930 145.066188 416.557583 -0.000000 0.170601 0.145800 -0.347359
7.600000 -73.145593 -33.214960 -0.000000 0.185511 0.500314 -0.107060 153.425793 395.572752 -0.000000 0.161012 0.144837 -0.347126
7.605000 -75.694813 -34.771717 -0.000000 0.194548 0.501204 -0.107110 159.246500 374.056262 -0.000000 0.151488 0.144509 -0.346810
7.610000 -75.787069 -34.100893 -0.000000 0.203347 0.501263 -0.107029 162.864721 351.830811 -0.000000 0.142088 0.145020 -0.346594
7.615000 -73.722360 -30.793860 -0.000000 0.211826 0.500617 -0.106867 164.219425 328.856928 -0.000000 0.132886 0.146081 -0.346374
7.620000 -69.923444 -24.447526 -0.000000 0.220041 0.499242 -0.106510 163.551667 305.013140 -0.000000 0.123836 0.147898 -0.346270
7.625000 -64.870617 -14.878554 -0.000000 0.227646 0.497179 -0.106206 160.668935 280.550082 -0.000000 0.115028 0.150407 -0.346036
7.630000 -59.181721 -1.972960 -0.000000 0.234623 0.494380 -0.105806 155.613070 255.824954 -0.000000 0.106685 0.153462 -0.345723
7.635000 -53.571963 14.384578 -0.000000 0.241156 0.490754 -0.105297 148.923530 231.128751 -0.000000 0.098693 0.157041 -0.345533
7.640000 -48.714517 34.188717 -0.000000 0.247273 0.486466 -0.104959 141.107855 206.947178 -0.000000 0.090939 0.161340 -0.345297
7.645000 -45.204001 57.280529 -0.000000 0.252808 0.481533 -0.104583 132.509970 183.981186 -0.000000 0.083489 0.166297 -0.345202
7.650000 -43.320105 83.491381 -0.000000 0.258510 0.475765 -0.104194 124.024857 162.532834 -0.000000 0.076234 0.171579 -0.345164
7.655000 -43.304433 112.315415 -0.000000 0.263840 0.469170 -0.103813 115.945871 143.237740 -0.000000 0.069236 0.177590 -0.345071
7.660000 -45.278704 143.032540 -0.000000 0.268884 0.461822 -0.103402 108.666677 126.537910 -0.000000 0.062595 0.184073 -0.344966
7.665000 -49.047500 174.728933 -0.000000 0.273917 0.453843 -0.103027 102.672701 112.607226 -0.000000 0.056253 0.191013 -0.344970
7.670000 -54.390919 206.260473 -0.000000 0.278786 0.445375 -0.102675 98.221795 101.559506 -0.000000 0.050254 0.198444 -0.344953
7.675000 -60.607537 236.542240 -0.000000 0.283774 0.436234 -0.102879 95.662195 93.115156 -0.000000 0.044630 0.206341 -0.344897
7.680000 -67.608676 264.457733 -0.000000 0.288753 0.427041 -0.102873 94.935563 87.090945 -0.000000 0.039338 0.214579 -0.344951
7.685000 -74.898338 289.306559 -0.000000 0.293703 0.417539 -0.103109 96.085848 82.949494 -0.000000 0.034505 0.223217 -0.345058
7.690000 -82.411697 310.695781 -0.000000 0.298090 0.407705 -0.103254 98.895622 80.226940 -0.000000 0.030145 0.232308 -0.345136
7.695000 -90.176044 328.626664 -0.000000 0.302257 0.397708 -0.103219 103.024431 78.490402 -0.000000 0.026326 0.241518 -0.345221
7.700000 -97.763095 343.541271 -0.000000 0.305833 0.387462 -0.103075 108.162044 77.251246 -0.000000 0.023052 0.251207 -0.345293
7.705000 -105.065209 355.942284 -0.000000 0.309181 0.376990 -0.103115 113.874045 76.245261 -0.000000 0.020353 0.260983 -0.345366
7.710000 -111.475278 366.484024 -0.000000 0.312172 0.366304 -0.103139 119.832338 75.161881 -0.000000 0.018272 0.271171 -0.345445
7.715000 -117.002780 375.619218 -0.000000 0.314613 0.355385 -0.103054 125.608675 73.976076 -0.000000 0.016760 0.281468 -0.345360
7.720000 -121.506037 383.840833 -0.000000 0.316496 0.344371 -0.102851 130.857930 72.709890 -0.000000 0.015896 0.291906 -0.345342
7.725000 -124.888602 391.587670 -0.000000 0.317878 0.333325 -0.102656 135.284640 71.503785 -0.000000 0.015660 0.302400 -0.345287
7.730000 -126.884954 399.236175 -0.000000 0.318762 0.322343 -0.102531 138.707306 70.513696 -0.000000 0.016153 0.313059 -0.345240
7.735000 -127.745557 406.847154 -0.000000 0.319108 0.311518 -0.102497 140.954670 70.085928 -0.000000 0.017287 0.323582 -0.345168
7.740000 -126.960610 414.594382 -0.000000 0.318975 0.300848 -0.102440 142.096870 70.237040 -0.000000 0.019039 0.334156 -0.345163
7.745000 -124.598889 422.402404 -0.000000 0.318285 0.290285 -0.102399 142.209009 71.043968 -0.000000 0.021473 0.344533 -0.345274
7.750000 -120.278347 430.330779 -0.000000 0.316289 0.279784 -0.103498 141.523660 72.253921 -0.000000 0.024511 0.354681 -0.345287
7.755000 -114.618376 438.180756 -0.000000 0.314275 0.269553 -0.103427 140.131778 73.766598 -0.000000 0.028391 0.364497 -0.345301
7.760000 -106.908432 446.122026 -0.000000 0.311510 0.259480 -0.102978 138.307635 74.877656 -0.000000 0.032870 0.374191 -0.345512
7.765000 -96.855457 454.134056 -0.000000 0.308041 0.249494 -0.103147 136.142708 74.926532 -0.000000 0.038030 0.383838 -0.345956
7.770000 -85.597026 461.836226 -0.000000 0.304212 0.239871 -0.103545 133.340145 73.699420 -0.000000 0.043599 0.393242 -0.345752
7.775000 -72.392286 469.228268 -0.000000 0.299443 0.230506 -0.103526 129.785715 70.553463 -0.000000 0.049819 0.402300 -0.345822
7.780000 -57.387026 476.108203 -0.000000 0.293990 0.221474 -0.103566 125.137034 65.299410 -0.000000 0.056604 0.411164 -0.345903
7.785000 -40.291019 482.301913 -0.000000 0.287695 0.212806 -0.103175 119.074398 57.793136 -0.000000 0.063999 0.419862 -0.346019
7.790000 -21.677545 487.429494 -0.000000 0.281186 0.204357 -0.103135 111.185860 48.241141 -0.000000 0.072429 0.427944 -0.346647
7.795000 -2.698130 491.036022 -0.000000 0.274113 0.196336 -0.103109 101.145355 37.041390 -0.000000 0.080714 0.435631 -0.346669
7.800000 16.573326 492.712807 -0.000000 0.266490 0.188875 -0.103060 88.903056 24.351690 -0.000000 0.089061 0.442950 -0.346017
7.805000 36.350142 492.018762 -0.000000 0.258365 0.181989 -0.102939 74.508861 10.293981 -0.000000 0.097775 0.449879 -0.345730
7.810000 56.600214 488.546305 -0.000000 0.249901 0.175647 -0.102802 58.068481 -4.908153 -0.000000 0.107308 0.456084 -0.345683
7.815000 76.731124 482.087292 -0.000000 0.240958 0.169865 -0.102711 39.812385 -20.906390 -0.000000 0.117094 0.461960 -0.345653
7.820000 95.745600 472.764660 -0.000000 0.231659 0.164844 -0.102578 20.163205 -37.337450 -0.000000 0.126921 0.467260 -0.345746
7.825000 114.087530 460.667899 -0.000000 0.222093 0.160061 -0.102429 -0.430331 -53.903361 -0.000000 0.137202 0.472033 -0.345926
7.830000 130.496553 446.428730 -0.000000 0.212246 0.156171 -0.102264 -21.285496 -70.183944 -0.000000 0.147413 0.476207 -0.345837
7.835000 144.343935 430.757724 -0.000000 0.202166 0.152921 -0.102218 -41.613497 -85.812147 -0.000000 0.157125 0.479832 -0.345704
7.840000 156.098790 414.019857 -0.000000 0.192055 0.150445 -0.102098 -60.772723 -100.291737 -0.000000 0.166892 0.482966 -0.345653
7.845000 165.605665 396.615483 -0.000000 0.181894 0.148700 -0.102081 -78.056858 -113.091106 -0.000000 0.176578 0.485639 -0.345435
7.850000 172.673227 378.783781 -0.000000 0.172114 0.147612 -0.101889 -92.808779 -123.688540 -0.000000 0.186364 0.487603 -0.345021
7.855000 177.963254 360.169392 -0.000000 0.161811 0.147218 -0.102179 -104.764585 -131.382254 -0.000000 0.195882 0.489052 -0.344898
7.860000 180.669814 340.924152 -0.000000 0.151971 0.147427 -0.102264 -113.293332 -135.969402 -0.000000 0.205216 0.489768 -0.344739
7.865000 181.636091 320.259036 -0.000000 0.141889 0.148431 -0.102595 -118.537338 -136.966327 -0.000000 0.214357 0.489737 -0.344705
7.870000 179.610815 298.496573 -0.000000 0.132975 0.150030 -0.102284 -120.020814 -134.809470 -0.000000 0.223128 0.488983 -0.344875
7.875000 176.129327 274.469528 -0.000000 0.123607 0.152442 -0.102569 -118.739281 -129.032556 -0.000000 0.231542 0.487433 -0.345216
7.880000 170.259177 248.685674 -0.000000 0.114909 0.155546 -0.102625 -114.871890 -120.198295 -0.000000 0.239509 0.485486 -0.345680
7.885000 162.497446 221.073716 -0.000000 0.106526 0.159361 -0.102694 -109.448558 -108.299356 -0.000000 0.246954 0.482629 -0.346226
7.890000 153.009171 192.082734 -0.000000 0.098382 0.163744 -0.102825 -103.414900 -93.448818 -0.000000 0.254056 0.479212 -0.347001
7.895000 141.905148 162.566118 -0.000000 0.090680 0.168827 -0.103015 -97.620412 -75.794987 -0.000000 0.260561 0.474895 -0.347799
7.900000 129.528791 133.525344 -0.000000 0.083392 0.174404 -0.103090 -92.839046 -55.396127 -0.000000 0.266622 0.469931 -0.348435
7.905000 116.424869 105.954060 -0.000000 0.076530 0.180456 -0.103151 -89.641092 -32.255482 -0.000000 0.272158 0.463969 -0.349217
7.910000 103.127336 80.836979 -0.000000 0.069984 0.187153 -0.103204 -88.282159 -6.507837 -0.000000 0.277128 0.457513 -0.349906
7.915000 90.227967 58.901610 -0.000000 0.063741 0.194335 -0.103159 -88.808602 21.643402 -0.000000 0.281669 0.450453 -0.350491
7.920000 78.171840 40.744109 -0.000000 0.057830 0.201855 -0.103341 -91.184044 51.772208 -0.000000 0.285645 0.442876 -0.350956
7.925000 67.391141 26.566048 -0.000000 0.052241 0.209761 -0.103094 -95.392773 83.497057 -0.000000 0.289245 0.434816 -0.351188
